<svg width="27" height="29" viewBox="0 0 27 29" fill="none" xmlns="http://www.w3.org/2000/svg">
<rect y="4" width="24.3478" height="24.3478" rx="2.89855" fill="#FCC232"/>
<path d="M7.55017 14.3971C7.56269 14.2378 7.63353 14.0893 7.74858 13.9809C7.86364 13.8726 8.01445 13.8125 8.171 13.8125H16.8291C16.9857 13.8125 17.1365 13.8726 17.2515 13.9809C17.3666 14.0893 17.4374 14.2378 17.45 14.3971L17.9961 21.3357C18.0098 21.5106 17.9879 21.6865 17.9318 21.8523C17.8757 22.0181 17.7865 22.1703 17.67 22.2992C17.5534 22.4281 17.4119 22.531 17.2544 22.6014C17.097 22.6718 16.9269 22.7082 16.755 22.7082H8.24511C8.07319 22.7082 7.90315 22.6718 7.74568 22.6014C7.58822 22.531 7.44674 22.4281 7.33016 22.2992C7.21358 22.1703 7.12442 22.0181 7.0683 21.8523C7.01217 21.6865 6.9903 21.5106 7.00405 21.3357L7.54954 14.3971H7.55017Z" stroke="black" stroke-width="0.812543" stroke-linecap="round" stroke-linejoin="round"/>
<path d="M14.9905 15.7187V12.5416C14.9905 11.8676 14.7281 11.2211 14.261 10.7444C13.7939 10.2678 13.1603 10 12.4997 10C11.8391 10 11.2056 10.2678 10.7385 10.7444C10.2713 11.2211 10.0089 11.8676 10.0089 12.5416V15.7187" stroke="black" stroke-width="0.812543" stroke-linecap="round" stroke-linejoin="round"/>
<circle cx="23" cy="4" r="4" fill="#FFFFFE"/>
<path d="M22.6955 3.50382H22.9594C23.0926 3.50263 23.1978 3.46816 23.275 3.40039C23.3535 3.33263 23.3927 3.23455 23.3927 3.10615C23.3927 2.98251 23.3601 2.88681 23.2947 2.81904C23.2305 2.75009 23.1318 2.71561 22.9986 2.71561C22.8821 2.71561 22.7864 2.74949 22.7115 2.81726C22.6366 2.88383 22.5992 2.97122 22.5992 3.0794H22.1658C22.1658 2.94625 22.2009 2.82499 22.2711 2.71561C22.3424 2.60624 22.4411 2.52123 22.5671 2.4606C22.6943 2.39878 22.8364 2.36787 22.9933 2.36787C23.2525 2.36787 23.4558 2.43326 23.6032 2.56403C23.7518 2.69362 23.8261 2.87432 23.8261 3.10615C23.8261 3.22266 23.7886 3.33263 23.7137 3.43606C23.64 3.5383 23.5443 3.61558 23.4266 3.66789C23.5693 3.71663 23.6775 3.79331 23.7512 3.89793C23.8261 4.00255 23.8635 4.12738 23.8635 4.27242C23.8635 4.50544 23.7833 4.6909 23.6228 4.8288C23.4635 4.96671 23.2536 5.03567 22.9933 5.03567C22.7436 5.03567 22.5391 4.96909 22.3798 4.83594C22.2205 4.70279 22.1409 4.52565 22.1409 4.30452H22.5742C22.5742 4.41865 22.6123 4.51138 22.6883 4.58271C22.7656 4.65404 22.8691 4.68971 22.9986 4.68971C23.133 4.68971 23.2388 4.65404 23.3161 4.58271C23.3933 4.51138 23.432 4.40795 23.432 4.27242C23.432 4.1357 23.3916 4.03049 23.3107 3.95678C23.2299 3.88307 23.1098 3.84621 22.9505 3.84621H22.6955V3.50382Z" fill="#25272E"/>
</svg>
