<svg width="134" height="24" viewBox="0 0 134 24" fill="none" xmlns="http://www.w3.org/2000/svg">
<path d="M3.43457 23H0.944336V1.58398H12.8828V3.7959H3.43457V11.6328H12.3115V13.8447H3.43457V23ZM29.9336 14.958C29.9336 17.5752 29.2744 19.6211 27.9561 21.0957C26.6377 22.5605 24.8164 23.293 22.4922 23.293C21.0566 23.293 19.7822 22.9561 18.6689 22.2822C17.5557 21.6084 16.6963 20.6416 16.0908 19.3818C15.4854 18.1221 15.1826 16.6475 15.1826 14.958C15.1826 12.3408 15.8369 10.3047 17.1455 8.84961C18.4541 7.38477 20.2705 6.65234 22.5947 6.65234C24.8408 6.65234 26.623 7.39941 27.9414 8.89355C29.2695 10.3877 29.9336 12.4092 29.9336 14.958ZM17.7021 14.958C17.7021 17.0088 18.1123 18.5713 18.9326 19.6455C19.7529 20.7197 20.959 21.2568 22.5508 21.2568C24.1426 21.2568 25.3486 20.7246 26.1689 19.6602C26.999 18.5859 27.4141 17.0186 27.4141 14.958C27.4141 12.917 26.999 11.3691 26.1689 10.3145C25.3486 9.25 24.1328 8.71777 22.5215 8.71777C20.9297 8.71777 19.7285 9.24023 18.918 10.2852C18.1074 11.3301 17.7021 12.8877 17.7021 14.958ZM48.0684 14.958C48.0684 17.5752 47.4092 19.6211 46.0908 21.0957C44.7725 22.5605 42.9512 23.293 40.627 23.293C39.1914 23.293 37.917 22.9561 36.8037 22.2822C35.6904 21.6084 34.8311 20.6416 34.2256 19.3818C33.6201 18.1221 33.3174 16.6475 33.3174 14.958C33.3174 12.3408 33.9717 10.3047 35.2803 8.84961C36.5889 7.38477 38.4053 6.65234 40.7295 6.65234C42.9756 6.65234 44.7578 7.39941 46.0762 8.89355C47.4043 10.3877 48.0684 12.4092 48.0684 14.958ZM35.8369 14.958C35.8369 17.0088 36.2471 18.5713 37.0674 19.6455C37.8877 20.7197 39.0938 21.2568 40.6855 21.2568C42.2773 21.2568 43.4834 20.7246 44.3037 19.6602C45.1338 18.5859 45.5488 17.0186 45.5488 14.958C45.5488 12.917 45.1338 11.3691 44.3037 10.3145C43.4834 9.25 42.2676 8.71777 40.6562 8.71777C39.0645 8.71777 37.8633 9.24023 37.0527 10.2852C36.2422 11.3301 35.8369 12.8877 35.8369 14.958ZM63.2734 20.8467H63.1416C62.0186 22.4775 60.3389 23.293 58.1025 23.293C56.0029 23.293 54.3672 22.5752 53.1953 21.1396C52.0332 19.7041 51.4521 17.6631 51.4521 15.0166C51.4521 12.3701 52.0381 10.3145 53.21 8.84961C54.3818 7.38477 56.0127 6.65234 58.1025 6.65234C60.2803 6.65234 61.9502 7.44336 63.1123 9.02539H63.3027L63.2002 7.86816L63.1416 6.74023V0.207031H65.5732V23H63.5957L63.2734 20.8467ZM58.4102 21.2568C60.0703 21.2568 61.2715 20.8076 62.0137 19.9092C62.7656 19.001 63.1416 17.541 63.1416 15.5293V15.0166C63.1416 12.7412 62.7607 11.1201 61.999 10.1533C61.2471 9.17676 60.041 8.68848 58.3809 8.68848C56.9551 8.68848 55.8613 9.24512 55.0996 10.3584C54.3477 11.4619 53.9717 13.0244 53.9717 15.0459C53.9717 17.0967 54.3477 18.6445 55.0996 19.6895C55.8516 20.7344 56.9551 21.2568 58.4102 21.2568Z" fill="white"/>
<path d="M85.627 23H81.1592V13.4346C81.1592 11.0713 80.2803 9.88965 78.5225 9.88965C77.2725 9.88965 76.3691 10.3145 75.8125 11.1641C75.2559 12.0137 74.9775 13.3906 74.9775 15.2949V23H70.5098V0.207031H74.9775V4.85059C74.9775 5.21191 74.9434 6.06152 74.875 7.39941L74.7725 8.71777H75.0068C76.0029 7.11621 77.585 6.31543 79.7529 6.31543C81.6768 6.31543 83.1367 6.83301 84.1328 7.86816C85.1289 8.90332 85.627 10.3877 85.627 12.3213V23ZM101.828 23L101.228 20.9053H100.993C100.515 21.667 99.8359 22.2578 98.957 22.6777C98.0781 23.0879 97.0771 23.293 95.9541 23.293C94.0303 23.293 92.5801 22.7803 91.6035 21.7549C90.627 20.7197 90.1387 19.2354 90.1387 17.3018V6.62305H94.6064V16.1885C94.6064 17.3701 94.8164 18.2588 95.2363 18.8545C95.6562 19.4404 96.3252 19.7334 97.2432 19.7334C98.4932 19.7334 99.3965 19.3184 99.9531 18.4883C100.51 17.6484 100.788 16.2617 100.788 14.3281V6.62305H105.256V23H101.828ZM119.055 6.31543C120.988 6.31543 122.502 7.07227 123.596 8.58594C124.689 10.0898 125.236 12.1553 125.236 14.7822C125.236 17.4873 124.67 19.582 123.537 21.0664C122.414 22.5508 120.881 23.293 118.938 23.293C117.014 23.293 115.505 22.5947 114.411 21.1982H114.104L113.356 23H109.943V0.207031H114.411V5.50977C114.411 6.18359 114.353 7.2627 114.235 8.74707H114.411C115.456 7.12598 117.004 6.31543 119.055 6.31543ZM117.619 9.88965C116.516 9.88965 115.71 10.2314 115.202 10.915C114.694 11.5889 114.431 12.707 114.411 14.2695V14.7529C114.411 16.5107 114.67 17.7705 115.188 18.5322C115.715 19.2939 116.545 19.6748 117.678 19.6748C118.596 19.6748 119.323 19.2549 119.86 18.415C120.407 17.5654 120.681 16.335 120.681 14.7236C120.681 13.1123 120.407 11.9062 119.86 11.1055C119.313 10.2949 118.566 9.88965 117.619 9.88965ZM128.298 20.9053C128.298 20.085 128.518 19.4648 128.957 19.0449C129.396 18.625 130.036 18.415 130.876 18.415C131.687 18.415 132.312 18.6299 132.751 19.0596C133.2 19.4893 133.425 20.1045 133.425 20.9053C133.425 21.6768 133.2 22.2871 132.751 22.7363C132.302 23.1758 131.677 23.3955 130.876 23.3955C130.056 23.3955 129.421 23.1807 128.972 22.751C128.522 22.3115 128.298 21.6963 128.298 20.9053Z" fill="#FCC232"/>
</svg>
