<svg width="148" height="148" viewBox="0 0 148 148" fill="none" xmlns="http://www.w3.org/2000/svg">
<circle cx="74" cy="74" r="74" fill="#FFFFFE"/>
<path d="M91.1602 115.267H55.8398C52.1937 115.267 49.2379 112.311 49.2379 108.665V39.8397C49.2379 36.1936 52.1937 33.2378 55.8398 33.2378H91.1602C94.8063 33.2378 97.7621 36.1936 97.7621 39.8397V108.665C97.7621 112.311 94.8063 115.267 91.1602 115.267Z" fill="#A7A9BE"/>
<path d="M91.1602 33.2378H86.2087C89.8548 33.2378 92.8107 36.1936 92.8107 39.8397V108.665C92.8107 112.311 89.8548 115.267 86.2087 115.267H91.1602C94.8063 115.267 97.7621 112.311 97.7621 108.665V39.8397C97.7621 36.1936 94.8063 33.2378 91.1602 33.2378Z" fill="#9A9B9E"/>
<path d="M93.4709 39.8397V108.665C93.4709 109.941 92.4363 110.976 91.1602 110.976H55.8398C54.5636 110.976 53.5291 109.941 53.5291 108.665V39.8397C53.5291 38.5636 54.5636 37.5291 55.8398 37.5291H62.4589C62.8436 37.5291 63.1859 37.7733 63.3112 38.1371L64.1833 40.6711C64.3086 41.0348 64.6509 41.2791 65.0356 41.2791H81.9643C82.3491 41.2791 82.6914 41.0348 82.8166 40.6711L83.6888 38.1371C83.814 37.7733 84.1563 37.5291 84.5411 37.5291H91.1602C92.4363 37.5291 93.4709 38.5636 93.4709 39.8397Z" fill="#FAE6A2"/>
<path d="M91.1602 37.5291H86.2087C87.4849 37.5291 88.5194 38.5636 88.5194 39.8397V108.665C88.5194 109.941 87.4849 110.976 86.2087 110.976H91.1602C92.4364 110.976 93.4709 109.941 93.4709 108.665V39.8397C93.4709 38.5636 92.4364 37.5291 91.1602 37.5291Z" fill="#ECD279"/>
<path d="M84.3668 75.4224H62.6332C61.1739 75.4224 59.9908 74.2393 59.9908 72.7799V70.9193C59.9908 70.6267 60.228 70.3895 60.5206 70.3895H86.4794C86.7721 70.3895 87.0092 70.6267 87.0092 70.9193V72.7799C87.0092 74.2393 85.8262 75.4224 84.3668 75.4224Z" fill="#FD7E41"/>
<path d="M86.4794 70.3895H81.528C81.8206 70.3895 82.0578 70.6267 82.0578 70.9193V72.7799C82.0578 74.2393 80.8747 75.4224 79.4153 75.4224H84.3668C85.8262 75.4224 87.0092 74.2393 87.0092 72.7799V70.9193C87.0092 70.6267 86.7719 70.3895 86.4794 70.3895Z" fill="#D48145"/>
<path d="M86.4801 65.7682H60.5199C60.2205 65.7682 59.9809 65.5211 59.9903 65.2219C60.0636 62.885 61.1458 53.8484 73.4998 53.8484C85.8539 53.8484 86.9361 62.8851 87.0094 65.2219C87.019 65.5213 86.7795 65.7682 86.4801 65.7682Z" fill="#FD7E41"/>
<path d="M73.5 53.8484C72.618 53.8484 71.7952 53.8959 71.0243 53.9822C81.0501 55.1061 81.9901 63.0518 82.0581 65.2219C82.0675 65.5211 81.8278 65.7682 81.5284 65.7682H86.4799C86.7793 65.7682 87.0189 65.5211 87.0095 65.2219C86.9363 62.8851 85.8542 53.8484 73.5 53.8484Z" fill="#FD7E41"/>
<path d="M86.2878 70.3895H60.7122C59.436 70.3895 58.4015 69.355 58.4015 68.0789C58.4015 66.8027 59.436 65.7682 60.7122 65.7682H86.2878C87.5639 65.7682 88.5985 66.8027 88.5985 68.0789C88.5985 69.355 87.5639 70.3895 86.2878 70.3895Z" fill="#C15C2B"/>
<path d="M86.2878 65.7682H81.3363C82.6125 65.7682 83.647 66.8027 83.647 68.0789C83.647 69.355 82.6125 70.3895 81.3363 70.3895H86.2878C87.5639 70.3895 88.5985 69.355 88.5985 68.0789C88.5985 66.8027 87.5639 65.7682 86.2878 65.7682Z" fill="#D06D4A"/>
<path d="M83.568 99.7109H63.432C62.5205 99.7109 61.7816 98.9719 61.7816 98.0604V89.808C61.7816 88.8964 62.5205 88.1575 63.432 88.1575H83.568C84.4795 88.1575 85.2184 88.8964 85.2184 89.808V98.0604C85.2184 98.9719 84.4795 99.7109 83.568 99.7109Z" fill="#43BA7F"/>
<path d="M91.1602 32H55.8398C51.517 32 48 35.517 48 39.8398V43.4265C48.0568 45.0656 50.4194 45.0643 50.4757 43.4265V39.8398C50.4757 36.8821 52.8821 34.4757 55.8398 34.4757H91.1602C94.118 34.4757 96.5243 36.8821 96.5243 39.8398V108.665C96.5243 111.623 94.118 114.029 91.1602 114.029H55.8398C52.8821 114.029 50.4757 111.623 50.4757 108.665V49.3174C50.419 47.6783 48.0563 47.6796 48 49.3174V108.665C48 112.988 51.517 116.505 55.8398 116.505H91.1602C95.483 116.505 99 112.988 99 108.665V39.8398C99 35.517 95.483 32 91.1602 32Z" fill="black"/>
<path d="M93.4709 102.558C94.1547 102.558 94.7087 102.004 94.7087 101.32V39.8398C94.7087 37.8832 93.1168 36.2913 91.1602 36.2913H84.5411C83.6279 36.2913 82.815 36.8714 82.5183 37.7343L81.7242 40.0413H65.2755L64.4814 37.7343C64.1843 36.8712 63.3715 36.2913 62.4586 36.2913H55.8398C53.8832 36.2913 52.2913 37.8832 52.2913 39.8398V108.665C52.2913 110.622 53.8832 112.214 55.8398 112.214H91.1602C93.1168 112.214 94.7087 110.622 94.7087 108.665V107.161C94.652 105.522 92.2891 105.523 92.233 107.161V108.665C92.233 109.257 91.7517 109.738 91.1602 109.738H55.8398C55.2483 109.738 54.767 109.257 54.767 108.665V39.8398C54.767 39.2483 55.2483 38.767 55.8398 38.767H62.2188L63.0128 41.0739C63.3097 41.9371 64.1226 42.5171 65.0355 42.5171H81.9642C82.8769 42.5171 83.6898 41.9371 83.987 41.074L84.7812 38.767H91.1602C91.7517 38.767 92.233 39.2483 92.233 39.8398V101.32C92.233 102.004 92.7871 102.558 93.4709 102.558Z" fill="black"/>
<path d="M88.2471 72.7801V71.0349C90.3559 69.6639 90.3534 66.4896 88.2443 65.1216C88.1961 63.7932 87.8898 61.2578 86.4088 58.7688C86.0594 58.1813 85.2993 57.9885 84.7121 58.3381C84.1245 58.6876 83.9316 59.4473 84.2813 60.0348C85.2747 61.7041 85.6108 63.443 85.7223 64.5307H61.2758C61.568 61.5877 63.3662 55.0866 73.5 55.0866C76.3228 55.0866 78.7107 55.587 80.5977 56.5742C81.2036 56.8912 81.9516 56.6569 82.2684 56.0511C82.5853 55.4454 82.3511 54.6974 81.7453 54.3805C75.6679 51.1776 64.7249 52.2167 61.1329 57.9393C59.1333 60.736 58.8023 63.8497 58.7554 65.1219C56.6456 66.4911 56.6452 69.6652 58.7531 71.0351V72.7803C58.7531 74.9198 60.4937 76.6606 62.6334 76.6606H84.367C86.5063 76.6603 88.2471 74.9197 88.2471 72.7801ZM86.2878 67.0061C87.708 67.0566 87.707 69.1017 86.2878 69.1517H60.7122C59.292 69.1012 59.2929 67.0561 60.7122 67.0061H86.2878ZM85.7714 72.7801C85.7714 73.5545 85.1414 74.1847 84.3668 74.1847H62.6332C61.8588 74.1847 61.2286 73.5547 61.2286 72.7801V71.6276H85.7714V72.7801Z" fill="black"/>
<path d="M63.4321 86.9197C61.8395 86.9197 60.5437 88.2155 60.5437 89.808V98.0605C60.5437 99.653 61.8395 100.949 63.4321 100.949H83.568C85.1605 100.949 86.4563 99.653 86.4563 98.0605V89.808C86.4563 88.2155 85.1605 86.9197 83.568 86.9197H63.4321ZM83.9806 89.808V98.0605C83.9806 98.2879 83.7956 98.4731 83.568 98.4731H63.4321C63.2046 98.4731 63.0194 98.2879 63.0194 98.0605V89.808C63.0194 89.5806 63.2046 89.3954 63.4321 89.3954H83.568C83.7956 89.3954 83.9806 89.5804 83.9806 89.808Z" fill="black"/>
<path d="M74.3789 90.5671C73.8866 90.0928 73.1031 90.1071 72.6286 90.5995C72.1542 91.0917 72.1686 91.8753 72.6609 92.3498L73.0204 92.6964H70.6688C69.0297 92.7532 69.031 95.1159 70.6688 95.1721H73.2447L72.8776 95.5664C72.4118 96.0669 72.4397 96.85 72.94 97.316C73.4393 97.7811 74.2228 97.7545 74.6895 97.2536L76.9946 94.7778C77.4547 94.2835 77.4338 93.5118 76.9477 93.043L74.3789 90.5671Z" fill="black"/>
</svg>
