<svg width="100" height="17" viewBox="0 0 100 17" fill="none" xmlns="http://www.w3.org/2000/svg">
<path d="M8.54102 0.35204C8.57695 0.241482 8.73336 0.241482 8.76928 0.35204L10.4805 5.61849C10.4965 5.66793 10.5426 5.7014 10.5946 5.7014H16.132C16.2483 5.7014 16.2966 5.85016 16.2026 5.91849L11.7227 9.17333C11.6806 9.20389 11.663 9.25805 11.6791 9.30749L13.3903 14.5739C13.4262 14.6845 13.2996 14.7764 13.2056 14.7081L8.72569 11.4533C8.68363 11.4227 8.62668 11.4227 8.58462 11.4533L4.10471 14.7081C4.01067 14.7764 3.88413 14.6845 3.92005 14.5739L5.63122 9.30749C5.64729 9.25805 5.62969 9.20389 5.58763 9.17333L1.10772 5.91849C1.01368 5.85016 1.06201 5.7014 1.17826 5.7014H6.71573C6.76771 5.7014 6.81379 5.66793 6.82985 5.61848L8.54102 0.35204Z" fill="#FFBA0E"/>
<path d="M29.166 0.35204C29.2019 0.241482 29.3583 0.241482 29.3942 0.35204L31.1054 5.61849C31.1215 5.66793 31.1676 5.7014 31.2195 5.7014H36.757C36.8733 5.7014 36.9216 5.85016 36.8275 5.91849L32.3476 9.17333C32.3056 9.20389 32.288 9.25805 32.3041 9.30749L34.0152 14.5739C34.0511 14.6845 33.9246 14.7764 33.8306 14.7081L29.3507 11.4533C29.3086 11.4227 29.2516 11.4227 29.2096 11.4533L24.7297 14.7081C24.6356 14.7764 24.5091 14.6845 24.545 14.5739L26.2562 9.30749C26.2723 9.25805 26.2547 9.20389 26.2126 9.17333L21.7327 5.91849C21.6386 5.85016 21.687 5.7014 21.8032 5.7014H27.3407C27.3927 5.7014 27.4388 5.66793 27.4548 5.61848L29.166 0.35204Z" fill="#FFBA0E"/>
<path d="M49.791 0.35204C49.8269 0.241482 49.9834 0.241482 50.0193 0.35204L51.7305 5.61849C51.7465 5.66793 51.7926 5.7014 51.8446 5.7014H57.382C57.4983 5.7014 57.5466 5.85016 57.4526 5.91849L52.9727 9.17333C52.9306 9.20389 52.913 9.25805 52.9291 9.30749L54.6403 14.5739C54.6762 14.6845 54.5496 14.7764 54.4556 14.7081L49.9757 11.4533C49.9336 11.4227 49.8767 11.4227 49.8346 11.4533L45.3547 14.7081C45.2607 14.7764 45.1341 14.6845 45.17 14.5739L46.8812 9.30749C46.8973 9.25805 46.8797 9.20389 46.8376 9.17333L42.3577 5.91849C42.2637 5.85016 42.312 5.7014 42.4283 5.7014H47.9657C48.0177 5.7014 48.0638 5.66793 48.0799 5.61848L49.791 0.35204Z" fill="#FFBA0E"/>
<path d="M70.416 0.35204C70.4519 0.241482 70.6084 0.241482 70.6443 0.35204L72.3555 5.61849C72.3715 5.66793 72.4176 5.7014 72.4696 5.7014H78.007C78.1233 5.7014 78.1716 5.85016 78.0776 5.91849L73.5977 9.17333C73.5556 9.20389 73.538 9.25805 73.5541 9.30749L75.2653 14.5739C75.3012 14.6845 75.1746 14.7764 75.0806 14.7081L70.6007 11.4533C70.5586 11.4227 70.5017 11.4227 70.4596 11.4533L65.9797 14.7081C65.8857 14.7764 65.7591 14.6845 65.795 14.5739L67.5062 9.30749C67.5223 9.25805 67.5047 9.20389 67.4626 9.17333L62.9827 5.91849C62.8887 5.85016 62.937 5.7014 63.0533 5.7014H68.5907C68.6427 5.7014 68.6888 5.66793 68.7049 5.61848L70.416 0.35204Z" fill="#FFBA0E"/>
<path d="M91.041 0.35204C91.0769 0.241482 91.2334 0.241482 91.2693 0.35204L92.9805 5.61849C92.9965 5.66793 93.0426 5.7014 93.0946 5.7014H98.632C98.7483 5.7014 98.7966 5.85016 98.7026 5.91849L94.2227 9.17333C94.1806 9.20389 94.163 9.25805 94.1791 9.30749L95.8903 14.5739C95.9262 14.6845 95.7996 14.7764 95.7056 14.7081L91.2257 11.4533C91.1836 11.4227 91.1267 11.4227 91.0846 11.4533L86.6047 14.7081C86.5107 14.7764 86.3841 14.6845 86.42 14.5739L88.1312 9.30749C88.1473 9.25805 88.1297 9.20389 88.0876 9.17333L83.6077 5.91849C83.5137 5.85016 83.562 5.7014 83.6783 5.7014H89.2157C89.2677 5.7014 89.3138 5.66793 89.3299 5.61848L91.041 0.35204Z" fill="#FFBA0E"/>
</svg>
