<svg width="36" height="10" viewBox="0 0 36 10" fill="none" xmlns="http://www.w3.org/2000/svg">
<path d="M24.091 0.000488281H21.3423C21.1807 0.000488281 21.019 0.162173 20.9381 0.323858L19.8063 7.43801C19.8063 7.59969 19.8872 7.68054 20.0489 7.68054H21.504C21.6657 7.68054 21.7466 7.59969 21.7466 7.43801L22.0699 5.41694C22.0699 5.25526 22.2316 5.09357 22.4741 5.09357H23.3634C25.2228 5.09357 26.2737 4.2043 26.5163 2.42577C26.678 1.69818 26.5163 1.05144 26.1929 0.64723C25.7078 0.243017 24.9803 0.000488281 24.091 0.000488281ZM24.4144 2.66829C24.2527 3.63841 23.5251 3.63841 22.7975 3.63841H22.3125L22.6358 1.77903C22.6358 1.69818 22.7167 1.61734 22.8784 1.61734H23.04C23.5251 1.61734 24.0101 1.61734 24.2527 1.94071C24.4144 2.02155 24.4144 2.26408 24.4144 2.66829Z" fill="#139AD6"/>
<path d="M4.28466 0.000488281H1.53601C1.37432 0.000488281 1.21264 0.162173 1.1318 0.323858L0 7.43801C0 7.59969 0.0808435 7.68054 0.242529 7.68054H1.53601C1.69769 7.68054 1.85938 7.51885 1.94022 7.35716L2.26359 5.41694C2.26359 5.25526 2.42528 5.09357 2.66781 5.09357H3.55707C5.41645 5.09357 6.46741 4.2043 6.70993 2.42577C6.87162 1.69818 6.70993 1.05144 6.38656 0.64723C5.90151 0.243017 5.25477 0.000488281 4.28466 0.000488281ZM4.60803 2.66829C4.44634 3.63841 3.71876 3.63841 2.99118 3.63841H2.58696L2.91033 1.77903C2.91033 1.69818 2.99118 1.61734 3.15286 1.61734H3.31455C3.7996 1.61734 4.28466 1.61734 4.52718 1.94071C4.60803 2.02155 4.68887 2.26408 4.60803 2.66829Z" fill="#263B80"/>
<path d="M12.6115 2.58722H11.318C11.2372 2.58722 11.0755 2.66806 11.0755 2.74891L10.9947 3.15312L10.9138 2.99144C10.5905 2.58722 10.0246 2.42554 9.37782 2.42554C7.92265 2.42554 6.62917 3.55733 6.38664 5.09334C6.22496 5.90177 6.46749 6.62935 6.8717 7.11441C7.27591 7.59946 7.84181 7.76115 8.56939 7.76115C9.78203 7.76115 10.4288 7.03356 10.4288 7.03356L10.3479 7.43778C10.3479 7.59946 10.4288 7.68031 10.5905 7.68031H11.8031C11.9648 7.68031 12.1265 7.51862 12.2073 7.35694L12.9349 2.82975C12.8541 2.74891 12.6924 2.58722 12.6115 2.58722ZM10.7521 5.17419C10.5905 5.90177 10.0246 6.46767 9.21613 6.46767C8.81192 6.46767 8.48855 6.30598 8.32687 6.1443C8.16518 5.90177 8.08434 5.5784 8.08434 5.17419C8.16518 4.4466 8.81192 3.8807 9.53951 3.8807C9.94372 3.8807 10.1862 4.04239 10.4288 4.20407C10.6713 4.4466 10.7521 4.85081 10.7521 5.17419Z" fill="#263B80"/>
<path d="M32.337 2.58771H31.0436C30.9627 2.58771 30.801 2.66855 30.801 2.7494L30.7202 3.15361L30.6394 2.99192C30.316 2.58771 29.7501 2.42603 29.1033 2.42603C27.6482 2.42603 26.3547 3.55782 26.1122 5.09383C25.9505 5.90226 26.193 6.62984 26.5972 7.1149C27.0014 7.59995 27.5673 7.76164 28.2949 7.76164C29.5076 7.76164 30.1543 7.03405 30.1543 7.03405L30.0735 7.43827C30.0735 7.59995 30.1543 7.6808 30.316 7.6808H31.5286C31.6903 7.6808 31.852 7.51911 31.9328 7.35742L32.6604 2.83024C32.5796 2.7494 32.4987 2.58771 32.337 2.58771ZM30.4777 5.17467C30.316 5.90226 29.7501 6.46816 28.9417 6.46816C28.5374 6.46816 28.2141 6.30647 28.0524 6.14479C27.8907 5.90226 27.8099 5.57889 27.8099 5.17467C27.8907 4.44709 28.5374 3.88119 29.265 3.88119C29.6692 3.88119 29.9118 4.04288 30.1543 4.20456C30.4777 4.44709 30.5585 4.8513 30.4777 5.17467Z" fill="#139AD6"/>
<path d="M19.6449 2.58765H18.2705C18.1089 2.58765 18.028 2.66849 17.9472 2.74933L16.1686 5.49798L15.3602 2.91102C15.2794 2.74933 15.1985 2.66849 14.956 2.66849H13.6625C13.5008 2.66849 13.42 2.83017 13.42 2.99186L14.8751 7.27652L13.5008 9.21674C13.42 9.37842 13.5008 9.62095 13.6625 9.62095H14.956C15.1177 9.62095 15.1985 9.54011 15.2794 9.45927L19.7257 3.0727C19.9682 2.83017 19.8065 2.58765 19.6449 2.58765Z" fill="#263B80"/>
<path d="M33.873 0.243449L32.7412 7.51928C32.7412 7.68097 32.8221 7.76181 32.9837 7.76181H34.1155C34.2772 7.76181 34.4389 7.60012 34.5197 7.43844L35.6515 0.324291C35.6515 0.162606 35.5707 0.0817637 35.409 0.0817637H34.1155C34.0347 0.000921059 33.9538 0.0817643 33.873 0.243449Z" fill="#139AD6"/>
</svg>
