<svg width="28" height="20" viewBox="0 0 28 20" fill="none" xmlns="http://www.w3.org/2000/svg">
<path d="M28 17.6553C28 18.5694 27.259 19.3105 26.3449 19.3105H1.65512C0.741016 19.3105 0 18.5694 0 17.6553V1.65566C0 0.741504 0.741016 0.000488281 1.65512 0.000488281H26.3449C27.259 0.000488281 28 0.741559 28 1.65566V17.6553Z" fill="white"/>
<path d="M6.21467 9.76657L5.55722 6.61269C5.44483 6.17776 5.1178 6.04837 4.70918 6.03125H1.69491L1.66806 6.17535C4.01574 6.74448 5.56914 8.11747 6.21467 9.76657Z" fill="#F79F1A"/>
<path d="M13.199 6.09497H11.2515L10.0351 13.2332H11.9795L13.199 6.09497Z" fill="#059BBF"/>
<path d="M7.40165 13.2258L10.4647 6.09961H8.40347L6.49799 10.9683L6.29461 10.2332C5.92109 9.34887 4.85359 8.07602 3.60037 7.27473L5.34217 13.2282L7.40165 13.2258Z" fill="#059BBF"/>
<path d="M18.754 10.8995C18.7612 10.0891 18.2408 9.47096 17.1195 8.9604C16.4381 8.63063 16.0227 8.41073 16.0277 8.0761C16.0277 7.78046 16.3794 7.46289 17.1416 7.46289C17.7793 7.4531 18.2384 7.59234 18.5976 7.73649L18.7736 7.81716L19.0375 6.27076C18.6514 6.12655 18.048 5.97266 17.2932 5.97266C15.3706 5.97266 14.0172 6.94013 14.005 8.32772C13.9927 9.35382 14.9725 9.92547 15.7102 10.2674C16.4674 10.616 16.7215 10.8391 16.7167 11.1518C16.7118 11.6299 16.1132 11.848 15.5538 11.848C14.7745 11.848 14.3616 11.7405 13.7213 11.4737L13.4724 11.3594L13.1991 12.959C13.6532 13.1574 14.4934 13.3309 15.3657 13.3381C17.4103 13.3381 18.7393 12.383 18.754 10.8995Z" fill="#059BBF"/>
<path d="M21.0674 12.163C21.2897 12.163 23.2758 12.1654 23.5593 12.1654C23.6179 12.414 23.7963 13.2354 23.7963 13.2354H25.6016L24.0259 6.10205H22.5235C22.0568 6.10205 21.7101 6.22909 21.5048 6.69317L18.6148 13.2354H20.6597C20.6595 13.2354 20.9917 12.3561 21.0674 12.163ZM22.4012 8.70616C22.3916 8.72568 22.5625 8.29332 22.6603 8.02459L22.7921 8.64015C22.7921 8.64015 23.1635 10.3454 23.2416 10.7021H21.6268C21.7881 10.2917 22.4012 8.70616 22.4012 8.70616Z" fill="#059BBF"/>
<path d="M26.3449 0.000488281H1.65512C0.741016 0.000488281 0 0.741504 0 1.65566V3.3735H28V1.65566C28 0.741504 27.259 0.000488281 26.3449 0.000488281Z" fill="#059BBF"/>
<path d="M26.3449 19.3103H1.65512C0.741016 19.3103 0 18.5692 0 17.6551V15.9373H28V17.6551C28 18.5692 27.259 19.3103 26.3449 19.3103Z" fill="#F79F1A"/>
<path opacity="0.15" d="M1.17671 17.6553V1.65566C1.17671 0.741504 1.91778 0.000488281 2.83194 0.000488281H1.65506C0.741016 0.000488281 0 0.741504 0 1.65566V17.6553C0 18.5695 0.741016 19.3105 1.65512 19.3105H2.83199C1.91784 19.3105 1.17671 18.5694 1.17671 17.6553Z" fill="#202121"/>
</svg>
