<svg width="32" height="19" viewBox="0 0 32 19" fill="none" xmlns="http://www.w3.org/2000/svg">
<path d="M31.6666 9.50046C31.6666 14.728 27.4444 19.0004 22.1667 19.0004C16.9392 19.0004 12.6667 14.728 12.6667 9.50046C12.6667 4.27296 16.8889 0.000488281 22.1164 0.000488281C27.4444 0.000488281 31.6666 4.27296 31.6666 9.50046Z" fill="#FFB600"/>
<path d="M22.1667 0.000488281C27.3942 0.000488281 31.6666 4.27296 31.6666 9.50046C31.6666 14.728 27.4444 19.0004 22.1667 19.0004C16.9392 19.0004 12.6667 14.728 12.6667 9.50046" fill="#F7981D"/>
<path d="M22.1666 0.000488281C27.3941 0.000488281 31.6665 4.27296 31.6665 9.50046C31.6665 14.728 27.4443 19.0004 22.1666 19.0004" fill="#FF8500"/>
<path d="M9.39945 0.000488281C4.22221 0.0507527 0 4.27296 0 9.50046C0 14.728 4.22221 19.0004 9.49998 19.0004C11.9629 19.0004 14.1746 18.0454 15.8836 16.5375C16.2354 16.2359 16.537 15.884 16.8386 15.5322H14.8783C14.6269 15.2306 14.3756 14.8788 14.1746 14.5772H17.5423C17.7433 14.2756 17.9444 13.9237 18.0952 13.5719H13.6217C13.4709 13.2703 13.3201 12.9184 13.2195 12.5666H18.447C18.7486 11.6116 18.9497 10.6063 18.9497 9.55073C18.9497 8.84703 18.8492 8.19359 18.7486 7.54015H12.918C12.9682 7.1883 13.0688 6.88671 13.1693 6.53486H18.3968C18.2963 6.18301 18.1455 5.83116 17.9947 5.52957H13.5714C13.7222 5.17772 13.9232 4.87614 14.1243 4.52429H17.492C17.291 4.17244 17.0396 3.82058 16.7381 3.519H14.8783C15.1799 3.16715 15.4814 2.86556 15.8333 2.56397C14.1746 1.00578 11.9127 0.101017 9.44971 0.101017C9.44971 0.000488184 9.44971 0.000488281 9.39945 0.000488281Z" fill="#FF5050"/>
<path d="M0 9.50052C0 14.728 4.22221 19.0005 9.49998 19.0005C11.9629 19.0005 14.1746 18.0455 15.8836 16.5375C16.2354 16.236 16.537 15.8841 16.8386 15.5323H14.8783C14.6269 15.2307 14.3756 14.8788 14.1746 14.5772H17.5423C17.7433 14.2756 17.9444 13.9238 18.0952 13.5719H13.6217C13.4709 13.2704 13.3201 12.9185 13.2195 12.5667H18.447C18.7486 11.6116 18.9497 10.6063 18.9497 9.55079C18.9497 8.84708 18.8492 8.19365 18.7486 7.54021H12.918C12.9682 7.18836 13.0688 6.88677 13.1693 6.53492H18.3968C18.2963 6.18307 18.1455 5.83122 17.9947 5.52963H13.5714C13.7222 5.17778 13.9232 4.87619 14.1243 4.52434H17.492C17.291 4.17249 17.0396 3.82064 16.7381 3.51906H14.8783C15.1799 3.1672 15.4814 2.86562 15.8333 2.56403C14.1746 1.00583 11.9127 0.101074 9.44971 0.101074H9.39945" fill="#E52836"/>
<path d="M9.49994 19.0005C11.9629 19.0005 14.1745 18.0455 15.8835 16.5375C16.2354 16.236 16.537 15.8841 16.8386 15.5323H14.8782C14.6269 15.2307 14.3756 14.8788 14.1745 14.5772H17.5423C17.7433 14.2756 17.9444 13.9238 18.0952 13.5719H13.6216C13.4708 13.2704 13.32 12.9185 13.2195 12.5667H18.447C18.7486 11.6116 18.9497 10.6063 18.9497 9.55079C18.9497 8.84708 18.8491 8.19365 18.7486 7.54021H12.9179C12.9682 7.18836 13.0687 6.88677 13.1692 6.53492H18.3967C18.2962 6.18307 18.1454 5.83122 17.9946 5.52963H13.5714C13.7222 5.17778 13.9232 4.87619 14.1243 4.52434H17.492C17.2909 4.17249 17.0396 3.82064 16.738 3.51906H14.8782C15.1798 3.1672 15.4814 2.86562 15.8333 2.56403C14.1745 1.00583 11.9126 0.101074 9.44968 0.101074H9.39941" fill="#CB2026"/>
<path d="M12.8676 11.913L13.0184 11.0585C12.9682 11.0585 12.8676 11.1088 12.7671 11.1088C12.4153 11.1088 12.365 10.9077 12.4153 10.8072L12.7168 9.04794H13.2698L13.4206 8.09292H12.9179L13.0184 7.48975H12.0131C12.0131 7.48975 11.41 10.8072 11.41 11.2093C11.41 11.8125 11.7618 12.0638 12.2142 12.0638C12.5158 12.0638 12.7671 11.9633 12.8676 11.913Z" fill="white"/>
<path d="M13.2195 10.3049C13.2195 11.7123 14.1745 12.0641 14.9787 12.0641C15.7327 12.0641 16.0343 11.9133 16.0343 11.9133L16.2353 10.9583C16.2353 10.9583 15.6824 11.2096 15.1798 11.2096C14.074 11.2096 14.275 10.4054 14.275 10.4054H16.3359C16.3359 10.4054 16.4867 9.75197 16.4867 9.50065C16.4867 8.84721 16.1348 8.04298 15.029 8.04298C13.9734 7.94245 13.2195 9.04827 13.2195 10.3049ZM14.9787 8.84721C15.5316 8.84721 15.4311 9.50065 15.4311 9.55092H14.3253C14.3253 9.50065 14.4258 8.84721 14.9787 8.84721Z" fill="white"/>
<path d="M21.3623 11.9132L21.5634 10.8074C21.5634 10.8074 21.0607 11.0588 20.7089 11.0588C20.0052 11.0588 19.7036 10.5058 19.7036 9.90267C19.7036 8.69632 20.3068 8.04289 21.0105 8.04289C21.5131 8.04289 21.9152 8.34447 21.9152 8.34447L22.066 7.28892C22.066 7.28892 21.4629 7.0376 20.9099 7.0376C19.7539 7.0376 18.5978 8.04289 18.5978 9.95294C18.5978 11.2095 19.201 12.064 20.4073 12.064C20.8094 12.064 21.3623 11.9132 21.3623 11.9132Z" fill="white"/>
<path d="M7.33852 7.94214C6.63481 7.94214 6.13217 8.1432 6.13217 8.1432L5.98138 8.99769C5.98138 8.99769 6.43376 8.79663 7.08719 8.79663C7.43904 8.79663 7.74063 8.8469 7.74063 9.14848C7.74063 9.34954 7.69037 9.39981 7.69037 9.39981C7.69037 9.39981 7.38878 9.39981 7.23799 9.39981C6.38349 9.39981 5.42847 9.75166 5.42847 10.9077C5.42847 11.8125 6.03164 12.0136 6.38349 12.0136C7.08719 12.0136 7.38878 11.5612 7.43904 11.5612L7.38878 11.9633H8.29354L8.69565 9.19875C8.69565 7.9924 7.69037 7.94214 7.33852 7.94214ZM7.53957 10.204C7.53957 10.3548 7.43904 11.1591 6.83587 11.1591C6.53428 11.1591 6.43376 10.9077 6.43376 10.7569C6.43376 10.5056 6.58455 10.1538 7.33852 10.1538C7.48931 10.204 7.53957 10.204 7.53957 10.204Z" fill="white"/>
<path d="M9.65071 12.0135C9.90203 12.0135 11.1586 12.0638 11.1586 10.7067C11.1586 9.45004 9.9523 9.70137 9.9523 9.19872C9.9523 8.9474 10.1534 8.84687 10.5052 8.84687C10.656 8.84687 11.2089 8.89713 11.2089 8.89713L11.3597 7.99237C11.3597 7.99237 11.0079 7.89185 10.4047 7.89185C9.65071 7.89185 8.89674 8.19343 8.89674 9.19872C8.89674 10.3548 10.1534 10.2543 10.1534 10.7067C10.1534 11.0082 9.8015 11.0585 9.55018 11.0585C9.0978 11.0585 8.64542 10.9077 8.64542 10.9077L8.49463 11.8125C8.54489 11.913 8.79622 12.0135 9.65071 12.0135Z" fill="white"/>
<path d="M29.7063 7.13794L29.5052 8.49508C29.5052 8.49508 29.1031 7.99244 28.5502 7.99244C27.6454 7.99244 26.8412 9.09825 26.8412 10.4051C26.8412 11.2094 27.2433 12.0639 28.0978 12.0639C28.701 12.0639 29.0528 11.6617 29.0528 11.6617L29.0026 12.0136H30.0078L30.7618 7.1882L29.7063 7.13794ZM29.2539 9.80195C29.2539 10.3549 29.0026 11.0586 28.4496 11.0586C28.0978 11.0586 27.8967 10.757 27.8967 10.2543C27.8967 9.4501 28.2486 8.94746 28.701 8.94746C29.0528 8.94746 29.2539 9.19878 29.2539 9.80195Z" fill="white"/>
<path d="M1.85969 11.9633L2.46286 8.34429L2.56339 11.9633H3.26709L4.57397 8.34429L4.02106 11.9633H5.07661L5.88084 7.13794H4.22212L3.21683 10.1035L3.16656 7.13794H1.70889L0.904663 11.9633H1.85969Z" fill="white"/>
<path d="M17.4417 11.9631C17.7433 10.3044 17.7935 8.94724 18.4972 9.19856C18.5978 8.54512 18.7486 8.2938 18.8491 8.04248C18.8491 8.04248 18.7988 8.04248 18.648 8.04248C18.1957 8.04248 17.8438 8.64565 17.8438 8.64565L17.9443 8.09275H16.9893L16.3359 12.0134H17.4417V11.9631Z" fill="white"/>
<path d="M23.6746 7.94214C22.9709 7.94214 22.4682 8.1432 22.4682 8.1432L22.3174 8.99769C22.3174 8.99769 22.7698 8.79663 23.4233 8.79663C23.7751 8.79663 24.0767 8.8469 24.0767 9.14848C24.0767 9.34954 24.0264 9.39981 24.0264 9.39981C24.0264 9.39981 23.7248 9.39981 23.574 9.39981C22.7196 9.39981 21.7645 9.75166 21.7645 10.9077C21.7645 11.8125 22.3677 12.0136 22.7196 12.0136C23.4233 12.0136 23.7248 11.5612 23.7751 11.5612L23.7248 11.9633H24.6296L25.0317 9.19875C25.082 7.9924 24.0264 7.94214 23.6746 7.94214ZM23.9259 10.204C23.9259 10.3548 23.8254 11.1591 23.2222 11.1591C22.9206 11.1591 22.8201 10.9077 22.8201 10.7569C22.8201 10.5056 22.9709 10.1538 23.7248 10.1538C23.8756 10.204 23.8756 10.204 23.9259 10.204Z" fill="white"/>
<path d="M25.8861 11.9631C26.1877 10.3044 26.2379 8.94724 26.9416 9.19856C27.0422 8.54512 27.193 8.2938 27.2935 8.04248C27.2935 8.04248 27.2432 8.04248 27.0924 8.04248C26.6401 8.04248 26.2882 8.64565 26.2882 8.64565L26.3887 8.09275H25.4337L24.7803 12.0134H25.8861V11.9631Z" fill="white"/>
<path d="M11.3094 11.2093C11.3094 11.8125 11.6613 12.0638 12.1137 12.0638C12.4655 12.0638 12.7671 11.9633 12.8676 11.913L13.0184 11.0585C12.9682 11.0585 12.8676 11.1088 12.7671 11.1088C12.4153 11.1088 12.365 10.9077 12.4153 10.8072L12.7169 9.04794H13.2698L13.4206 8.09292H12.9179L13.0184 7.48975" fill="#DCE5E5"/>
<path d="M13.7221 10.3049C13.7221 11.7123 14.1745 12.0641 14.9787 12.0641C15.7327 12.0641 16.0343 11.9133 16.0343 11.9133L16.2353 10.9583C16.2353 10.9583 15.6824 11.2096 15.1798 11.2096C14.074 11.2096 14.275 10.4054 14.275 10.4054H16.3359C16.3359 10.4054 16.4867 9.75197 16.4867 9.50065C16.4867 8.84721 16.1348 8.04298 15.029 8.04298C13.9734 7.94245 13.7221 9.04827 13.7221 10.3049ZM14.9787 8.84721C15.5316 8.84721 15.6322 9.50065 15.6322 9.55092H14.3253C14.3253 9.50065 14.4258 8.84721 14.9787 8.84721Z" fill="#DCE5E5"/>
<path d="M21.3623 11.9132L21.5634 10.8074C21.5634 10.8074 21.0607 11.0588 20.7089 11.0588C20.0052 11.0588 19.7036 10.5058 19.7036 9.90267C19.7036 8.69632 20.3067 8.04289 21.0105 8.04289C21.5131 8.04289 21.9152 8.34447 21.9152 8.34447L22.066 7.28892C22.066 7.28892 21.4628 7.0376 20.9099 7.0376C19.7538 7.0376 19.1004 8.04289 19.1004 9.95294C19.1004 11.2095 19.2009 12.064 20.4073 12.064C20.8094 12.064 21.3623 11.9132 21.3623 11.9132Z" fill="#DCE5E5"/>
<path d="M5.98138 9.04777C5.98138 9.04777 6.43376 8.84671 7.08719 8.84671C7.43904 8.84671 7.74063 8.89698 7.74063 9.19856C7.74063 9.39962 7.69037 9.44988 7.69037 9.44988C7.69037 9.44988 7.38878 9.44988 7.23799 9.44988C6.38349 9.44988 5.42847 9.80174 5.42847 10.9578C5.42847 11.8626 6.03164 12.0636 6.38349 12.0636C7.08719 12.0636 7.38878 11.6113 7.43904 11.6113L7.38878 12.0134H8.29354L8.69565 9.24883C8.69565 8.09274 7.69037 8.04248 7.28825 8.04248L5.98138 9.04777ZM8.04222 10.2039C8.04222 10.3546 7.43904 11.1589 6.83587 11.1589C6.53428 11.1589 6.43376 10.9076 6.43376 10.7568C6.43376 10.5054 6.58455 10.1536 7.33852 10.1536C7.48931 10.2039 8.04222 10.2039 8.04222 10.2039Z" fill="#DCE5E5"/>
<path d="M8.54486 11.913C8.54486 11.913 8.84645 12.0135 9.70094 12.0135C9.95226 12.0135 11.2089 12.0638 11.2089 10.7067C11.2089 9.45004 10.0025 9.70137 10.0025 9.19872C10.0025 8.9474 10.2036 8.84687 10.5554 8.84687C10.7062 8.84687 11.2591 8.89713 11.2591 8.89713L11.4099 7.99237C11.4099 7.99237 11.0581 7.89185 10.4549 7.89185C9.70094 7.89185 9.44962 8.19343 9.44962 9.19872C9.44962 10.3548 10.2036 10.2543 10.2036 10.7067C10.2036 11.0082 9.85174 11.0585 9.60041 11.0585" fill="#DCE5E5"/>
<path d="M29.5052 8.49511C29.5052 8.49511 29.1031 7.99246 28.5501 7.99246C27.6454 7.99246 27.3438 9.09828 27.3438 10.4052C27.3438 11.2094 27.2433 12.0639 28.0978 12.0639C28.7009 12.0639 29.0528 11.6618 29.0528 11.6618L29.0025 12.0136H30.0078L30.7618 7.18823L29.5052 8.49511ZM29.4549 9.80198C29.4549 10.3549 29.0025 11.0586 28.4496 11.0586C28.0978 11.0586 27.8967 10.757 27.8967 10.2544C27.8967 9.45013 28.2486 8.94749 28.7009 8.94749C29.0528 8.94749 29.4549 9.19881 29.4549 9.80198Z" fill="#DCE5E5"/>
<path d="M1.85969 11.9633L2.46286 8.34429L2.56339 11.9633H3.26709L4.57397 8.34429L4.02106 11.9633H5.07661L5.88084 7.13794H4.62423L3.21683 10.1035L3.16656 7.13794H2.61365L0.904663 11.9633H1.85969Z" fill="#DCE5E5"/>
<path d="M16.3861 11.9631H17.4417C17.7432 10.3044 17.7935 8.94724 18.4972 9.19856C18.5977 8.54512 18.7485 8.2938 18.8491 8.04248C18.8491 8.04248 18.7988 8.04248 18.648 8.04248C18.1956 8.04248 17.8438 8.64565 17.8438 8.64565L17.9443 8.09275" fill="#DCE5E5"/>
<path d="M22.3174 9.04777C22.3174 9.04777 22.7698 8.84671 23.4233 8.84671C23.7751 8.84671 24.0767 8.89698 24.0767 9.19856C24.0767 9.39962 24.0264 9.44988 24.0264 9.44988C24.0264 9.44988 23.7248 9.44988 23.574 9.44988C22.7196 9.44988 21.7645 9.80174 21.7645 10.9578C21.7645 11.8626 22.3677 12.0636 22.7196 12.0636C23.4233 12.0636 23.7248 11.6113 23.7751 11.6113L23.7248 12.0134H24.6296L25.0317 9.24883C25.0317 8.09274 24.0264 8.04248 23.6243 8.04248L22.3174 9.04777ZM24.3783 10.2039C24.3783 10.3546 23.7751 11.1589 23.1719 11.1589C22.8703 11.1589 22.7698 10.9076 22.7698 10.7568C22.7698 10.5054 22.9206 10.1536 23.6746 10.1536C23.8756 10.2039 24.3783 10.2039 24.3783 10.2039Z" fill="#DCE5E5"/>
<path d="M24.8306 11.9631H25.8862C26.1878 10.3044 26.238 8.94724 26.9417 9.19856C27.0423 8.54512 27.1931 8.2938 27.2936 8.04248C27.2936 8.04248 27.2433 8.04248 27.0925 8.04248C26.6401 8.04248 26.2883 8.64565 26.2883 8.64565L26.3888 8.09275" fill="#DCE5E5"/>
</svg>
