<svg width="28" height="19" viewBox="0 0 28 19" fill="none" xmlns="http://www.w3.org/2000/svg">
<path d="M27.5504 17.3718C27.5504 18.2713 26.8213 19.0004 25.9219 19.0004H1.62854C0.729118 19.0005 0 18.2713 0 17.3718V1.62908C0 0.72966 0.729118 0.000488281 1.62854 0.000488281H25.9219C26.8214 0.000488281 27.5504 0.72966 27.5504 1.62908V17.3718Z" fill="#306FC5"/>
<path opacity="0.15" d="M1.15782 17.3718V1.62908C1.15782 0.72966 1.88704 0.000488281 2.78647 0.000488281H1.62849C0.729118 0.000488281 0 0.729606 0 1.62908V17.3718C0 18.2713 0.729118 19.0005 1.62854 19.0005H2.78652C1.8871 19.0005 1.15782 18.2713 1.15782 17.3718Z" fill="#202121"/>
<path d="M4.01361 7.60358H4.83679L4.42531 6.55591L4.01361 7.60358Z" fill="white"/>
<path d="M8.39136 11.1208V11.6073H9.77582V12.1313H8.39136V12.6927H9.92541L10.6363 11.9067L9.96286 11.1208H8.39136Z" fill="white"/>
<path d="M19.2044 6.55591L18.7554 7.60358H19.6161L19.2044 6.55591Z" fill="white"/>
<path d="M12.3949 12.9916V10.8589L11.422 11.9066L12.3949 12.9916Z" fill="white"/>
<path d="M14.2282 11.4578C14.1907 11.2333 14.0409 11.1208 13.8163 11.1208H13.0308V11.7943H13.854C14.0784 11.7944 14.2282 11.6822 14.2282 11.4578Z" fill="white"/>
<path d="M16.8472 11.72C16.9221 11.6825 16.9596 11.5701 16.9596 11.4581C16.9971 11.3086 16.9221 11.2336 16.8472 11.1961C16.7726 11.1587 16.6602 11.1587 16.5481 11.1587H15.7996V11.7574H16.5481C16.6601 11.7574 16.7725 11.7574 16.8472 11.72Z" fill="white"/>
<path d="M22.2349 5.58325V6.03224L22.0106 5.58325H20.2522V6.03224L20.0276 5.58325H17.633C17.2215 5.58325 16.8846 5.65815 16.5854 5.8078V5.58325H14.9017V5.6207V5.8078C14.7147 5.65821 14.4902 5.58325 14.1909 5.58325H8.16689L7.75514 6.51867L7.34366 5.58325H5.99676H5.43547V6.03224L5.24838 5.58325H5.21093H3.60208L2.85364 7.34174L1.99318 9.24993L1.97736 9.28744H1.99318H3.90142H3.92531L3.93887 9.24993L4.16347 8.68881H4.64985L4.87435 9.28744H7.04427V9.24993V8.83845L7.23147 9.28738H8.31643L8.50342 8.83845V9.24993V9.28744H9.36399H13.6669H13.7043V8.31456H13.7793C13.8541 8.31456 13.8541 8.31456 13.8541 8.42686V9.24999H16.548V9.02549C16.7725 9.1379 17.109 9.24999 17.5581 9.24999H18.6807L18.9052 8.65146H19.4289L19.6534 9.24999H21.8234V8.8759V8.68886L22.1603 9.24999H22.2349H22.2725H23.9188V5.58325H22.235H22.2349ZM9.55119 8.72631H9.17695H8.95251V8.50198V6.66837L8.91506 6.7542V6.75318L8.04464 8.72631H8.01709H7.81697H7.4932L6.59528 6.66837V8.72631H5.32323L5.06133 8.16508H3.78907L3.52712 8.72631H2.86941L3.97627 6.10714H4.91158L5.9592 8.61396V6.10714H6.18364H6.95048L6.96812 6.14465H6.96942L7.44149 7.17208L7.78049 7.94188L7.79249 7.90308L8.54076 6.10719H9.55114V8.72631H9.55119ZM12.133 6.66837H10.6737V7.15476H12.0955V7.67854H10.6737V8.20253H12.133V8.7636H10.0377V6.10719H12.133V6.66837ZM14.8016 7.63318C14.8026 7.63404 14.8039 7.63463 14.805 7.63544C14.8192 7.65039 14.8313 7.66541 14.8416 7.67977C14.9133 7.77373 14.9713 7.91347 14.9742 8.11838C14.9744 8.12193 14.9745 8.12542 14.9748 8.12898C14.9748 8.13102 14.9751 8.1328 14.9751 8.13489C14.9751 8.13608 14.975 8.13699 14.975 8.13812C14.9759 8.15873 14.9764 8.17977 14.9764 8.20253V8.72637H14.4153V8.42692C14.4153 8.27727 14.4153 8.05273 14.3029 7.90308C14.2675 7.86773 14.2318 7.84443 14.1928 7.82786C14.1367 7.79154 14.0304 7.79094 13.8541 7.79094H13.1804V8.72637H12.5444V6.10719H13.9664C14.3029 6.10719 14.5275 6.10719 14.7146 6.21944C14.898 6.32953 15.0087 6.51211 15.0129 6.80123C15.0042 7.19942 14.7486 7.41788 14.5649 7.49155C14.5649 7.49155 14.6897 7.51668 14.8016 7.63318ZM16.0616 8.72631H15.4255V6.10714H16.0616V8.72631ZM23.3577 8.72631H22.5344L21.3372 6.74317V8.38947L21.3332 8.38559V8.72793H20.7012V8.72637H20.065L19.8405 8.16514H18.5309L18.3064 8.76366H17.5955C17.2964 8.76366 16.922 8.68892 16.6976 8.46442C16.4731 8.23993 16.3609 7.94059 16.3609 7.45426C16.3609 7.08012 16.4357 6.70572 16.6976 6.40648C16.8845 6.18183 17.2214 6.10719 17.6329 6.10719H18.2317V6.66837H17.6329C17.4084 6.66837 17.2964 6.70566 17.1464 6.81812C17.0344 6.93032 16.9595 7.15476 16.9595 7.41665C16.9595 7.71604 16.9969 7.90308 17.1464 8.05273C17.2589 8.16514 17.4084 8.20259 17.5955 8.20259H17.8574L18.7178 6.14475H19.0922H19.6533L20.7011 8.65157V8.52372V7.67864V7.6039V6.14481H21.6364L22.7213 7.97809V6.14481H23.3576V8.72642H23.3577V8.72631Z" fill="white"/>
<path d="M14.268 7.19835C14.279 7.18667 14.2889 7.17343 14.2973 7.15826C14.3312 7.10461 14.37 7.00797 14.3491 6.87608C14.3482 6.86398 14.346 6.85278 14.3434 6.84197C14.3427 6.83895 14.3428 6.83632 14.342 6.8333L14.3417 6.83336C14.323 6.76927 14.2755 6.72988 14.2281 6.70599C14.1531 6.6687 14.0409 6.6687 13.9287 6.6687H13.1802V7.26744H13.9287C14.0409 7.26744 14.1532 7.26744 14.2281 7.22993C14.2394 7.22423 14.2494 7.21648 14.259 7.20771L14.2591 7.20819C14.2592 7.20814 14.263 7.20416 14.268 7.19835Z" fill="white"/>
<path d="M25.565 12.468C25.565 12.2061 25.4903 11.9441 25.3781 11.7571V10.0735H25.3764V9.96104C25.3764 9.96104 23.8081 9.96104 23.5747 9.96104C23.3414 9.96104 23.0582 10.1855 23.0582 10.1855V9.96104H21.3372C21.0751 9.96104 20.7386 10.0359 20.5887 10.1855V9.96104H17.5208V10.0735V10.1854C17.2964 9.9985 16.8845 9.96099 16.6976 9.96099H14.6771V10.0734V10.1854C14.49 9.99844 14.0408 9.96094 13.8162 9.96094H11.5716L11.0477 10.5222L10.5613 9.96094H10.4046H10.1497H7.19397V10.0733V10.3689V13.7401H10.4866L11.0276 13.199L11.4965 13.7401H11.5341H13.4313H13.5173H13.5547H13.592V13.366V12.8796H13.7792C14.0408 12.8796 14.3777 12.8796 14.6396 12.7672V13.7025V13.7775H16.3234V13.7025V12.8047H16.398C16.5104 12.8047 16.5104 12.8047 16.5104 12.9169V13.7025V13.7775H21.5988C21.9358 13.7775 22.2723 13.7025 22.4594 13.5529V13.7025V13.7775H24.0684C24.4049 13.7775 24.7419 13.7401 24.9664 13.5904C25.3109 13.3837 25.528 13.0178 25.5603 12.5815C25.5618 12.5686 25.5637 12.5557 25.5649 12.5427L25.5627 12.5406C25.5641 12.5164 25.565 12.4925 25.565 12.468ZM13.7792 12.2436H13.0307V12.3556V12.5802V12.8047V13.2163H11.8009L11.0851 12.3931L11.0827 12.3958L11.0477 12.3556L10.2246 13.2163H7.83V10.5972H10.262L10.9265 11.325L11.0661 11.4774L11.0851 11.4578L11.8709 10.5973H13.8539C14.2388 10.5973 14.6697 10.6923 14.833 11.0838C14.8527 11.1614 14.8641 11.2476 14.8641 11.3455C14.8641 12.0938 14.3402 12.2436 13.7792 12.2436ZM17.5208 12.2061C17.5955 12.3181 17.6329 12.468 17.6329 12.6926V13.2162H16.997V12.8796C16.997 12.7297 16.997 12.468 16.8846 12.3556C16.8099 12.2436 16.6601 12.2436 16.4357 12.2436H15.7623V13.2163H15.1263V10.5598H16.548C16.8471 10.5598 17.109 10.5598 17.2964 10.6719C17.4834 10.7843 17.6329 10.9714 17.6329 11.2707C17.6329 11.6822 17.3712 11.9067 17.184 11.9816C17.3712 12.0562 17.4834 12.1312 17.5208 12.2061ZM20.1025 11.1208H18.6431V11.6072H20.065V12.1312H18.6431V12.6551H20.1025V13.2162H18.0072V10.5597H20.1025V11.1208ZM21.6739 13.2163H20.4765V12.6551H21.6739C21.7859 12.6551 21.8609 12.6551 21.9359 12.5802C21.9734 12.5427 22.0106 12.468 22.0106 12.3931C22.0106 12.3181 21.9734 12.2436 21.9359 12.2061C21.8984 12.1687 21.8234 12.1313 21.7112 12.1313C21.1125 12.0938 20.4017 12.1313 20.4017 11.3082C20.4017 10.934 20.6261 10.5224 21.2997 10.5224H22.5343V11.1584H21.3745C21.2623 11.1584 21.1874 11.1584 21.1125 11.1958C21.0378 11.2333 21.0378 11.3082 21.0378 11.383C21.0378 11.4953 21.1125 11.5327 21.1873 11.5698C21.2623 11.6073 21.3371 11.6073 21.4118 11.6073H21.7486C22.0854 11.6073 22.3098 11.6822 22.4595 11.8319C22.5718 11.9442 22.6466 12.1313 22.6466 12.3931C22.6466 12.9542 22.3099 13.2163 21.6739 13.2163ZM24.8916 12.9542C24.7421 13.1041 24.4801 13.2163 24.1058 13.2163H22.9087V12.6551H24.1057C24.218 12.6551 24.293 12.6551 24.3678 12.5802C24.4051 12.5427 24.4426 12.468 24.4426 12.3931C24.4426 12.3181 24.4051 12.2436 24.3678 12.2061C24.3303 12.1687 24.2556 12.1313 24.1433 12.1313C23.5448 12.0938 22.8337 12.1313 22.8337 11.3083C22.8337 10.9526 23.0372 10.6314 23.539 10.536C23.599 10.5277 23.6623 10.5224 23.7318 10.5224H24.9666V11.1584H24.1433H23.8441H23.8066C23.6943 11.1584 23.6196 11.1584 23.5448 11.1958C23.5072 11.2333 23.4697 11.3082 23.4697 11.383C23.4697 11.4953 23.5072 11.5327 23.6196 11.5698C23.6943 11.6073 23.7692 11.6073 23.8441 11.6073H23.8812H24.1807C24.3442 11.6073 24.4679 11.6275 24.581 11.6673C24.6847 11.7048 25.0278 11.8583 25.1045 12.2589C25.1112 12.3008 25.1161 12.3446 25.1161 12.3931C25.1161 12.6177 25.0412 12.8047 24.8916 12.9542Z" fill="white"/>
</svg>
